<svg width="19" height="19" viewBox="0 0 19 19" fill="none" xmlns="http://www.w3.org/2000/svg">
<path d="M15.443 17.4299L14.7543 13.0831C14.6513 12.4328 14.8749 11.7734 15.3523 11.32L18.5433 8.28897C18.6516 8.1863 18.7229 8.05062 18.7461 7.90321C18.8047 7.53334 18.5516 7.1847 18.1811 7.12408L13.834 6.43684C13.1837 6.33403 12.6256 5.91774 12.3417 5.32368L10.4442 1.35273C10.3797 1.21698 10.2724 1.10792 10.14 1.04002C9.97905 0.958224 9.79221 0.943666 9.62054 0.999547C9.44886 1.05543 9.3064 1.17718 9.22445 1.33805L7.22627 5.2594C6.92741 5.8459 6.35909 6.24779 5.70652 6.3341L1.3426 6.91127C1.21679 6.92774 1.09811 6.97913 1.00001 7.05962C0.901922 7.1401 0.82834 7.24646 0.787621 7.36664C0.746899 7.48681 0.740665 7.61599 0.769626 7.73953C0.798585 7.86307 0.861583 7.97602 0.95147 8.06558L4.06401 11.1775C4.52954 11.643 4.73622 12.3077 4.61669 12.955L3.81749 17.2833C3.78964 17.4299 3.81275 17.583 3.88064 17.7154C4.05132 18.0496 4.46 18.1829 4.79419 18.0123L8.716 16.0132C9.30246 15.7142 9.99846 15.723 10.5772 16.0367L14.4466 18.1336C14.5776 18.2042 14.7283 18.2308 14.8767 18.2069C15.2489 18.1512 15.5007 17.8014 15.443 17.4299Z" fill="url(#paint0_linear_12_2408)"/>
<defs>
<linearGradient id="paint0_linear_12_2408" x1="15.9518" y1="-1.31978" x2="21.4416" y2="16.9802" gradientUnits="userSpaceOnUse">
<stop stop-color="#BC60DA"/>
<stop offset="0.35" stop-color="#DF5780"/>
<stop offset="0.999163" stop-color="#FF4F5A"/>
</linearGradient>
</defs>
</svg>
