<svg xmlns="http://www.w3.org/2000/svg" width="142" height="41" viewBox="0 0 142 41" fill="none">
<path d="M7.84434 0.649929C4.94229 1.84992 1.76988 5.29267 0.76299 9.58782C-0.514246 15.0444 4.7878 17.3257 5.21263 16.5533C5.7147 15.6623 4.28298 15.3533 3.97401 12.5285C3.58781 8.89266 5.28987 4.82922 7.41676 3.0113C7.80297 2.66371 7.80296 3.12716 7.80296 3.97957C7.80296 5.48853 7.72572 19.2237 7.72572 22.0871C7.72572 25.9574 7.57124 27.1933 7.26228 28.3933C6.95331 29.6319 6.48711 30.4429 6.87607 30.7546C7.26228 31.1022 8.96434 30.2526 9.93261 28.8981C11.094 27.2733 11.5188 25.3009 11.5961 23.1326C11.6733 20.5395 11.6733 16.4788 11.6733 14.1175C11.6733 11.9906 11.7119 5.72301 11.6347 1.92992C11.5988 1.11613 9.04434 0.147861 7.84434 0.649929ZM110.489 18.7575C110.412 20.7685 109.949 22.3547 109.405 23.4388C108.321 25.6043 106.117 26.2636 105.187 23.1685C104.685 21.4664 104.647 18.6802 105.033 16.3216C105.419 13.9216 106.465 12.1037 108.205 12.2968C109.872 12.4899 110.683 14.6968 110.489 18.7575ZM81.5489 31.254C81.5103 34.5808 81.0082 37.5215 79.8855 38.3739C78.2993 39.5739 76.1338 38.6829 76.5586 36.247C76.9448 34.0815 78.8013 31.8746 81.5489 29.1657C81.5489 29.2043 81.5489 29.8222 81.5489 31.254ZM81.1241 18.7575C81.0082 20.5754 80.5448 22.4319 80.0399 23.4774C78.9558 25.6429 76.7131 26.3023 75.822 23.2071C75.2041 21.0802 75.3586 18.3712 75.6675 16.6306C76.0924 14.3878 77.0606 12.3354 78.84 12.3354C80.5034 12.2968 81.3558 14.1919 81.1241 18.7575ZM64.371 18.7188C64.2552 20.6526 63.869 22.2774 63.2869 23.4774C62.2028 25.6043 59.9986 26.3023 59.069 23.2071C58.3738 21.003 58.6055 17.9464 58.9145 16.3216C59.3393 13.883 60.4235 12.1809 62.0869 12.3354C63.7531 12.4899 64.5641 14.6968 64.371 18.7188ZM141.132 21.003C140.707 21.003 140.514 21.4278 140.357 22.1643C139.816 24.6802 139.234 25.2595 138.5 25.2595C137.687 25.2595 136.914 24.0209 136.721 21.5078C136.567 19.5354 136.605 15.8968 136.798 12.2995C136.837 11.5657 136.644 10.8292 134.633 10.0954C133.78 9.78644 132.545 9.32024 131.924 10.8292C130.183 15.0471 129.485 18.4126 129.331 19.7671C129.331 19.8443 129.254 19.8443 129.215 19.6899C129.099 18.6057 128.867 16.6333 128.867 12.454C128.867 11.6402 128.674 10.9451 127.783 10.3658C127.204 9.97955 125.422 9.35886 124.804 10.134C124.263 10.752 123.604 12.4568 122.947 14.5064C122.407 16.1313 122.018 17.254 122.018 17.254C122.018 17.254 122.018 12.843 122.018 11.1409C122.018 10.523 121.593 10.2885 121.438 10.2499C120.859 10.0954 119.698 9.78645 119.196 9.78645C118.578 9.78645 118.42 10.134 118.42 10.6389C118.42 10.7161 118.343 16.4816 118.343 20.5036C118.343 20.6968 118.343 20.8512 118.343 21.083C117.996 22.9395 116.912 25.4554 115.712 25.4554C114.512 25.4554 113.971 24.4098 113.971 19.6126C113.971 16.8264 114.048 15.5878 114.087 13.5768C114.125 12.4154 114.164 11.5271 114.164 11.2954C114.164 10.6775 113.08 10.3658 112.578 10.2499C112.076 10.134 111.648 10.0954 111.301 10.0954C110.798 10.134 110.487 10.443 110.487 10.8706C110.487 11.1023 110.487 11.5657 110.487 11.5657C109.869 10.5975 108.862 9.90231 108.205 9.7092C106.426 9.16852 104.531 9.63196 103.099 11.643C101.976 13.2292 101.281 15.0085 101.011 17.563C100.818 19.4195 100.895 21.3147 101.243 22.9395C100.818 24.7574 100.043 25.494 99.193 25.494C97.9544 25.494 97.0661 23.483 97.1819 19.9988C97.2592 17.7175 97.7226 16.0899 98.2275 13.7699C98.4592 12.763 98.2661 12.2609 97.8413 11.7589C97.4551 11.2954 96.6026 11.0637 95.364 11.3726C94.473 11.5657 93.2371 11.7975 92.1144 11.952C92.1144 11.952 92.1916 11.6816 92.2302 11.1768C92.5392 8.62231 89.753 8.85403 88.8647 9.66782C88.3241 10.1699 87.9737 10.7133 87.8578 11.7561C87.6261 13.3809 88.9806 14.1561 88.9806 14.1561C88.5558 16.1671 87.4716 18.7602 86.3489 20.6554C85.7696 21.6623 85.3034 22.4347 84.7241 23.2098C84.7241 22.9009 84.7241 22.6305 84.7241 22.3188C84.7241 18.1009 84.7627 14.8126 84.8013 13.6126C84.8399 12.4513 84.8786 11.563 84.8786 11.3699C84.8786 10.9064 84.6082 10.752 84.0648 10.5175C83.5627 10.3244 82.9806 10.2085 82.4013 10.1313C81.6262 10.054 81.2013 10.4789 81.2013 10.9451C81.2013 11.0223 81.2013 11.6016 81.2013 11.6016C80.5834 10.6333 79.5765 9.93817 78.92 9.74506C77.1406 9.20438 75.2455 9.66783 73.8138 11.6789C72.691 13.2651 71.9572 15.4692 71.7255 17.5602C71.5324 19.5326 71.571 21.1961 71.8414 22.6278C71.571 24.0595 70.7186 25.5298 69.7917 25.5298C68.5917 25.5298 67.9352 24.4843 67.9352 19.6871C67.9352 16.9009 68.0124 15.6623 68.051 13.6513C68.0896 12.4899 68.1283 11.6016 68.1283 11.3699C68.1283 10.752 67.0441 10.4402 66.5421 10.3244C66.0014 10.2085 65.5738 10.1699 65.2262 10.1699C64.7628 10.2085 64.451 10.6333 64.451 10.9037V11.5989C63.8331 10.6306 62.8262 9.93541 62.1697 9.74231C60.3904 9.20162 58.4952 9.70368 57.0635 11.6761C56.1338 12.9533 55.4 14.385 54.9752 17.5575C54.8593 18.4871 54.8207 19.3368 54.8207 20.1119C54.4345 22.3933 52.8097 24.9864 51.4552 24.9864C50.68 24.9864 49.9076 23.4774 49.9076 20.2278C49.9076 15.894 50.178 9.78093 50.2166 9.163C50.2166 9.163 51.9187 9.12438 52.2276 9.12438C53.08 9.12438 53.8525 9.12438 54.9752 9.08576C55.5545 9.04714 56.098 7.03611 55.5159 6.76301C55.2456 6.64715 53.389 6.56991 52.6525 6.53128C52.0345 6.53128 50.2911 6.3768 50.2911 6.3768C50.2911 6.3768 50.4456 2.31337 50.4842 1.84992C50.5228 1.50234 50.0594 1.30923 49.789 1.19337C49.1325 0.923027 48.5504 0.807168 47.8939 0.652686C46.9256 0.459583 46.5008 0.652685 46.4235 1.46648C46.3077 2.66647 46.2304 6.22508 46.2304 6.22508C45.5352 6.22508 43.1353 6.0706 42.4401 6.0706C41.7835 6.0706 41.0856 8.8568 41.9766 8.89542C43.0221 8.93404 44.8015 8.97266 46.0014 9.01128C46.0014 9.01128 45.9628 15.2402 45.9628 17.174C45.9628 17.3671 45.9628 17.5602 45.9628 17.7533C45.3063 21.1574 42.9835 23.014 42.9835 23.014C43.4856 20.7712 42.4815 19.0664 40.6608 17.6374C40.0042 17.0968 38.6497 16.0899 37.1794 15.0057C37.1794 15.0057 38.0318 14.1533 38.8042 12.4513C39.3449 11.2513 39.3835 9.85817 38.0291 9.5492C35.8249 9.04714 34.0429 10.672 33.5022 12.374C33.0774 13.6899 33.3091 14.6968 34.1201 15.7009C34.1974 15.7781 34.236 15.8554 34.3132 15.9326C33.8111 16.9009 33.1518 18.1754 32.5725 19.1437C30.9863 21.8912 29.7863 24.0954 28.8594 24.0954C28.1257 24.0954 28.1257 21.8912 28.1257 19.8002C28.1257 18.0209 28.2415 15.3119 28.3574 12.5257C28.396 11.5961 27.9325 11.094 27.1574 10.592C26.6939 10.3216 25.687 9.73955 25.1077 9.73955C24.2553 9.73955 21.7422 9.85541 19.3809 16.705C19.0719 17.5575 18.4898 19.1437 18.4898 19.1437L18.5284 10.9037C18.5284 10.7106 18.4126 10.5175 18.1809 10.4016C17.7947 10.1699 16.7105 9.74506 15.7809 9.74506C15.3174 9.74506 15.1243 9.93817 15.1243 10.363L15.0471 23.2457C15.0471 24.214 15.0857 25.3726 15.1629 25.8774C15.2402 26.3795 15.4333 26.7685 15.6264 27.0388C15.8195 27.2705 16.0512 27.4636 16.4016 27.5409C16.7491 27.6181 18.6057 27.8498 18.7243 27.1547C18.8402 26.3023 18.8402 25.3754 19.8471 21.894C21.3946 16.4761 23.367 13.8471 24.3353 12.9175C24.4898 12.763 24.6829 12.763 24.6829 12.9947C24.6443 14.1947 24.4898 17.1354 24.4126 19.6485C24.1422 26.3795 25.3808 27.6181 27.1215 27.6181C28.476 27.6181 30.3325 26.3022 32.3822 22.9367C33.6594 20.8485 34.8594 18.7961 35.7477 17.2871C36.3656 17.8664 37.0635 18.4485 37.7201 19.105C39.3063 20.614 39.847 22.0457 39.4994 23.4388C39.2291 24.4843 38.2222 25.5657 36.4429 24.5229C35.9408 24.214 35.7091 23.9823 35.1656 23.6319C34.8953 23.4388 34.4705 23.4002 34.1974 23.5933C33.5408 24.0954 33.1518 24.7547 32.9201 25.5271C32.727 26.3023 33.4608 26.6885 34.2746 27.0747C34.9698 27.3836 36.4401 27.654 37.4084 27.6926C41.0828 27.8084 44.0235 25.9133 46.0759 21.0002C46.4235 25.2181 48.0097 27.6153 50.7187 27.6153C52.5366 27.6153 54.3545 25.254 55.1683 22.9726C55.4 23.9023 55.7476 24.7519 56.1752 25.4112C58.2635 28.7381 62.3269 28.0043 64.3766 25.1795C64.9945 24.3271 65.1103 23.9795 65.1103 23.9795C65.4193 26.6498 67.549 27.5767 68.7848 27.5767C70.1779 27.5767 71.571 26.9202 72.5751 24.6747C72.691 24.9064 72.8069 25.1381 72.9614 25.3698C75.0496 28.6967 79.1131 27.9629 81.1627 25.1381C81.2399 25.0223 81.3558 24.8678 81.433 24.7905L81.5103 26.5312C81.5103 26.5312 80.3489 27.6153 79.6151 28.2719C76.4813 31.174 74.0813 33.3395 73.8882 35.8939C73.6565 39.1436 76.2882 40.3436 78.2993 40.4981C80.4262 40.6525 82.2468 39.4912 83.3282 37.8663C84.2965 36.4346 84.953 33.3395 84.9144 30.2443C84.9144 29.0057 84.8758 27.4581 84.8372 25.7947C85.9599 24.5174 87.1985 22.8926 88.3185 20.9974C89.5571 18.9478 90.9116 16.1616 91.6068 13.9933C91.6068 13.9933 92.7682 13.9933 94.0068 13.9161C94.393 13.8775 94.5089 13.9547 94.4316 14.2637C94.3544 14.6113 92.8454 20.3381 94.1999 24.1285C95.1295 26.7216 97.2178 27.5712 98.4564 27.5712C99.8881 27.5712 101.281 26.4871 102.015 24.8623C102.092 25.0554 102.208 25.2098 102.285 25.3643C104.374 28.6912 108.437 27.9574 110.487 25.1326C110.95 24.5147 111.221 23.9326 111.221 23.9326C111.645 26.6802 113.814 27.5298 115.011 27.5298C116.288 27.5298 117.488 26.9891 118.492 24.6664C118.531 25.6733 118.608 26.5229 118.685 26.7933C118.763 26.9478 119.11 27.1409 119.38 27.2567C120.542 27.6816 121.742 27.4885 122.167 27.4112C122.476 27.334 122.707 27.1022 122.746 26.4816C122.823 24.8181 122.785 22.0319 123.287 19.9436C124.139 16.4623 124.912 15.1078 125.298 14.4485C125.491 14.0623 125.761 14.0237 125.761 14.4099C125.761 15.2237 125.8 17.5823 126.147 20.7161C126.379 23.0388 126.727 24.4291 126.961 24.8567C127.656 26.0954 128.547 26.1726 129.243 26.1726C129.706 26.1726 130.636 26.0567 130.558 25.2429C130.52 24.8567 130.597 22.4567 131.411 19.0526C131.951 16.8099 132.881 14.7961 133.19 14.0623C133.306 13.7919 133.383 14.0237 133.383 14.0623C133.306 15.6099 133.151 20.6388 133.769 23.425C134.622 27.1767 137.096 27.5657 137.949 27.5657C139.767 27.5657 141.276 26.1726 141.778 22.4981C141.866 21.6595 141.711 21.003 141.132 21.003Z" fill="white"/>
</svg>