<svg xmlns="http://www.w3.org/2000/svg" width="161" height="41" viewBox="0 0 161 41" fill="none">
<g clip-path="url(#clip0_73_2157)">
<path d="M1.62744 6.42429H7.80244V28.8993H19.2274V34.5993H1.62744V6.42429ZM21.9524 15.5118H27.8774V34.5868H21.9524V15.5118ZM24.9149 6.02429C25.5948 6.02429 26.2594 6.2259 26.8247 6.60362C27.39 6.98133 27.8306 7.5182 28.0908 8.14632C28.351 8.77444 28.419 9.46561 28.2864 10.1324C28.1538 10.7992 27.8264 11.4117 27.3456 11.8925C26.8649 12.3732 26.2524 12.7006 25.5856 12.8332C24.9188 12.9659 24.2276 12.8978 23.5995 12.6376C22.9713 12.3775 22.4345 11.9369 22.0568 11.3716C21.679 10.8063 21.4774 10.1417 21.4774 9.46179C21.4774 8.55011 21.8396 7.67577 22.4843 7.03111C23.1289 6.38646 24.0033 6.02429 24.9149 6.02429ZM52.6774 6.42429H58.6024V23.2618L65.3274 15.4868H72.5899L64.8149 24.3243L72.4274 34.5993H64.9774L58.6774 25.1618H58.6024V34.5993H52.6774V6.42429ZM31.1649 15.5118H36.8149V18.1243H36.8899C37.4599 17.1512 38.2825 16.3504 39.2706 15.8068C40.2587 15.2633 41.3754 14.9972 42.5024 15.0368C48.5149 15.0368 49.6149 18.9868 49.6149 24.1243V34.5993H43.7399V25.3118C43.7399 23.0993 43.7399 20.3118 40.6524 20.3118C37.5649 20.3118 37.0899 22.7243 37.0899 25.2118V34.6493H31.1649V15.5118Z" fill="white"/>
<path d="M85.0775 22.8243C85.0895 22.3434 85.0036 21.865 84.8251 21.4182C84.6465 20.9715 84.379 20.5657 84.0388 20.2255C83.6986 19.8853 83.2928 19.6178 82.8461 19.4392C82.3993 19.2607 81.9209 19.1748 81.44 19.1868C80.4041 19.1213 79.384 19.4662 78.6004 20.1469C77.8167 20.8276 77.3325 21.7894 77.2525 22.8243H85.0775ZM90.0775 31.2868C89.0886 32.4719 87.8492 33.4229 86.4486 34.0714C85.0479 34.7198 83.5209 35.0495 81.9775 35.0368C76.0525 35.0368 71.3025 31.0868 71.3025 24.9493C71.3025 18.8118 76.0525 14.8743 81.9775 14.8743C87.515 14.8743 90.99 18.8243 90.99 24.9493V26.8118H77.24C77.4033 27.8714 77.9458 28.8357 78.7666 29.5254C79.5873 30.2151 80.6306 30.5834 81.7025 30.5618C82.5468 30.5606 83.3771 30.3456 84.1159 29.9369C84.8546 29.5281 85.4779 28.939 85.9275 28.2243L90.0775 31.2868ZM103.352 20.1118C102.385 20.082 101.431 20.3416 100.611 20.8574C99.7923 21.3732 99.1458 22.1218 98.7546 23.0072C98.3635 23.8927 98.2455 24.8747 98.4159 25.8276C98.5862 26.7805 99.0371 27.6609 99.7107 28.356C100.384 29.0511 101.25 29.5294 102.197 29.7295C103.144 29.9296 104.13 29.8424 105.027 29.4792C105.924 29.116 106.693 28.4933 107.234 27.6907C107.775 26.8882 108.065 25.9423 108.065 24.9743C108.118 24.332 108.032 23.6857 107.814 23.0793C107.596 22.4729 107.25 21.9205 106.799 21.4595C106.349 20.9984 105.805 20.6395 105.204 20.407C104.602 20.1745 103.958 20.0738 103.315 20.1118M113.565 34.5868H108.065V32.0868C107.378 33.0032 106.49 33.7501 105.469 34.2701C104.449 34.7902 103.323 35.0695 102.177 35.0868C96.4775 35.0868 92.7275 30.9743 92.7275 25.1618C92.7275 19.8243 96.0525 14.9243 101.477 14.9243C102.618 14.8241 103.766 14.9988 104.825 15.4338C105.885 15.8688 106.824 16.5514 107.565 17.4243H107.64V6.42432H113.565V34.5868Z" fill="white"/>
<path d="M156.315 0.511826H122.265C121.878 0.506843 121.495 0.578914 121.136 0.723833C120.777 0.868751 120.451 1.08361 120.177 1.35589C119.902 1.62817 119.685 1.9524 119.537 2.30968C119.389 2.66696 119.313 3.05012 119.315 3.43683V37.6243C119.318 38.0079 119.397 38.387 119.547 38.7399C119.698 39.0929 119.916 39.4127 120.19 39.6809C120.464 39.9492 120.789 40.1608 121.145 40.3033C121.501 40.4459 121.881 40.5168 122.265 40.5118H156.315C156.702 40.5218 157.088 40.4547 157.449 40.3145C157.81 40.1744 158.139 39.9638 158.419 39.6952C158.698 39.4266 158.921 39.1052 159.075 38.7497C159.228 38.3942 159.31 38.0117 159.315 37.6243V3.43683C159.315 3.04632 159.237 2.65974 159.085 2.29988C158.934 1.94002 158.712 1.61418 158.432 1.34157C158.152 1.06895 157.821 0.855085 157.457 0.712579C157.094 0.570074 156.705 0.501813 156.315 0.511826ZM131.165 34.5993H125.24V15.5118H131.165V34.5993ZM128.202 12.9243C127.523 12.9243 126.858 12.7227 126.293 12.345C125.727 11.9673 125.287 11.4304 125.027 10.8023C124.766 10.1742 124.698 9.48301 124.831 8.8162C124.964 8.14939 125.291 7.53689 125.772 7.05614C126.253 6.5754 126.865 6.24801 127.532 6.11538C128.199 5.98274 128.89 6.05081 129.518 6.31099C130.146 6.57117 130.683 7.01176 131.061 7.57706C131.438 8.14235 131.64 8.80695 131.64 9.48683C131.64 10.3985 131.278 11.2728 130.633 11.9175C129.988 12.5622 129.114 12.9243 128.202 12.9243ZM153.365 34.5993H147.44V25.3243C147.44 23.1118 147.44 20.3243 144.365 20.3243C141.29 20.3243 140.802 22.7368 140.802 25.2243V34.6618H134.877V15.5118H140.565V18.1368H140.64C141.212 17.166 142.035 16.3678 143.023 15.8265C144.011 15.2852 145.127 15.021 146.252 15.0618C152.252 15.0618 153.365 19.0118 153.365 24.1493V34.5993Z" fill="white"/>
</g>
<defs>
<clipPath id="clip0_73_2157">
<rect width="160" height="40" fill="white" transform="translate(0.564941 0.511841)"/>
</clipPath>
</defs>
</svg>