<svg xmlns="http://www.w3.org/2000/svg" width="99" height="41" viewBox="0 0 99 41" fill="none">
<path d="M18.5899 5.66883C17.4489 7.01993 15.6232 8.08558 13.7975 7.93334C13.5693 6.10651 14.4631 4.1655 15.5091 2.96665C16.6502 1.57749 18.647 0.587959 20.2635 0.511841C20.4536 2.41479 19.712 4.27968 18.5899 5.66883ZM20.2444 8.2949C17.601 8.14267 15.338 9.79823 14.0828 9.79823C12.8086 9.79823 10.8879 8.37102 8.79596 8.40908C6.07647 8.44714 3.54715 9.98853 2.15888 12.4433C-0.693732 17.3529 1.4172 24.6222 4.17473 28.6184C5.52496 30.5975 7.14144 32.7668 9.27139 32.6907C11.2872 32.6146 12.086 31.3777 14.5202 31.3777C16.9734 31.3777 17.6771 32.6907 19.807 32.6527C22.0131 32.6146 23.4013 30.6736 24.7516 28.6945C26.292 26.449 26.9196 24.2607 26.9576 24.1465C26.9196 24.1084 22.6977 22.4909 22.6597 17.6194C22.6216 13.547 25.9877 11.606 26.1398 11.4919C24.2381 8.6755 21.2714 8.37102 20.2444 8.2949ZM35.5154 2.77635V32.4433H40.1176V22.3006H46.4885C52.3078 22.3006 56.3966 18.3044 56.3966 12.5195C56.3966 6.73449 52.3839 2.77635 46.6406 2.77635H35.5154ZM40.1176 6.65837H45.4235C49.4172 6.65837 51.6992 8.78967 51.6992 12.5385C51.6992 16.2873 49.4172 18.4376 45.4045 18.4376H40.1176V6.65837ZM64.8023 32.6717C67.6929 32.6717 70.3744 31.2064 71.5915 28.8848H71.6866V32.4433H75.9465V17.6764C75.9465 13.3948 72.5233 10.6355 67.2555 10.6355C62.368 10.6355 58.7547 13.4329 58.6216 17.2768H62.7674C63.1097 15.45 64.8023 14.2511 67.1224 14.2511C69.937 14.2511 71.5154 15.5642 71.5154 17.9809V19.6175L65.7721 19.96C60.4282 20.2835 57.5376 22.4719 57.5376 26.2778C57.5376 30.1217 60.5233 32.6717 64.8023 32.6717ZM66.0384 29.1512C63.5851 29.1512 62.0257 27.9714 62.0257 26.1636C62.0257 24.2987 63.5281 23.214 66.3997 23.0428L71.5154 22.7193V24.3939C71.5154 27.1722 69.1572 29.1512 66.0384 29.1512ZM81.6327 40.5118C86.1208 40.5118 88.2317 38.7992 90.0764 33.6041L98.1588 10.921H93.4805L88.0606 28.4471H87.9655L82.5455 10.921H77.7341L85.5312 32.5195L85.1129 33.8325C84.4092 36.0589 83.2682 36.9153 81.2333 36.9153C80.872 36.9153 80.1683 36.8772 79.8831 36.8391V40.3977C80.1493 40.4738 81.2904 40.5118 81.6327 40.5118Z" fill="white"/>
</svg>