<svg xmlns="http://www.w3.org/2000/svg" width="76" height="41" viewBox="0 0 76 41" fill="none">
<g clip-path="url(#clip0_73_2149)">
<path d="M-34.2046 14.6785H-48.3505V18.8451H-38.3258C-38.8271 24.734 -43.728 27.234 -48.3505 27.234C-54.2538 27.234 -59.4332 22.5674 -59.4332 16.0674C-59.4332 9.73404 -54.5323 4.84515 -48.3505 4.84515C-43.6166 4.84515 -40.7763 7.84515 -40.7763 7.84515L-37.8246 4.78959C-37.8246 4.78959 -41.6117 0.622925 -48.4618 0.622925C-57.2055 0.67848 -64 8.06737 -64 16.0118C-64 23.8451 -57.6511 31.4563 -48.2391 31.4563C-39.9966 31.4563 -33.9262 25.7896 -33.9262 17.4563C-33.9262 15.6785 -34.2046 14.6785 -34.2046 14.6785ZM-22.6206 11.6785C-28.4126 11.6785 -32.5895 16.1785 -32.5895 21.5118C-32.5895 26.8451 -28.5797 31.4563 -22.5649 31.4563C-17.1628 31.4563 -12.7074 27.2896 -12.7074 21.6229C-12.6517 15.0118 -17.8311 11.6785 -22.6206 11.6785ZM-22.5649 15.5674C-19.7246 15.5674 -16.9957 17.8451 -16.9957 21.5674C-16.9957 25.1785 -19.6689 27.5674 -22.5649 27.5674C-25.7394 27.5674 -28.2455 25.0674 -28.2455 21.5674C-28.2455 18.1229 -25.7394 15.5674 -22.5649 15.5674ZM-0.956306 11.6785C-6.74831 11.6785 -10.9252 16.1785 -10.9252 21.5118C-10.9252 26.8451 -6.91538 31.4563 -0.900612 31.4563C4.50154 31.4563 8.95692 27.2896 8.95692 21.6229C9.01262 15.0118 3.83323 11.6785 -0.956306 11.6785ZM-0.900612 15.5674C1.9397 15.5674 4.66862 17.8451 4.66862 21.5674C4.66862 25.1785 1.99538 27.5674 -0.900612 27.5674C-4.07507 27.5674 -6.58123 25.0674 -6.58123 21.5674C-6.52554 18.1229 -4.07507 15.5674 -0.900612 15.5674ZM20.3182 11.6785C14.9717 11.6785 10.7948 16.3451 10.7948 21.5674C10.7948 27.5118 15.64 31.4563 20.2068 31.4563C23.0471 31.4563 24.5508 30.3451 25.6646 29.0674V31.0118C25.6646 34.4007 23.604 36.4563 20.4295 36.4563C17.4222 36.4563 15.8628 34.234 15.3615 32.9563L11.5745 34.5674C12.9111 37.4007 15.64 40.4007 20.4852 40.4007C25.776 40.4007 29.8415 37.0674 29.8415 30.0674V12.2896H25.6646V13.9563C24.3837 12.5674 22.6572 11.6785 20.3182 11.6785ZM20.708 15.5674C23.3255 15.5674 25.9988 17.7896 25.9988 21.5674C25.9988 25.4563 23.3255 27.5674 20.6523 27.5674C17.812 27.5674 15.1945 25.2896 15.1945 21.6229C15.1388 17.7896 17.9234 15.5674 20.708 15.5674ZM48.2757 11.6229C43.2634 11.6229 39.0308 15.6229 39.0308 21.5118C39.0308 27.734 43.7089 31.4563 48.7769 31.4563C52.9538 31.4563 55.5714 29.1785 57.0751 27.1229L53.6222 24.8451C52.7311 26.234 51.2274 27.5674 48.7769 27.5674C45.9923 27.5674 44.7114 26.0674 43.9317 24.5674L57.2422 19.0674L56.5739 17.4563C55.2372 14.2896 52.2299 11.6229 48.2757 11.6229ZM48.4428 15.4563C50.2806 15.4563 51.5615 16.4007 52.1185 17.5674L43.2634 21.2896C42.8735 18.4007 45.6025 15.4563 48.4428 15.4563ZM32.7375 30.8451H37.0815V1.73404H32.7375V30.8451ZM75.2308 16.1785H69.8843V10.8451H65.5403V16.1785H60.1938V20.5118H65.5403V25.8451H69.8843V20.5118H75.2308V16.1785Z" fill="white"/>
</g>
<defs>
<clipPath id="clip0_73_2149">
<rect width="139.231" height="40" fill="white" transform="translate(-64 0.511841)"/>
</clipPath>
</defs>
</svg>