<svg xmlns="http://www.w3.org/2000/svg" width="120" height="41" viewBox="0 0 120 41" fill="none">
<path d="M29.5605 29.9486C25.8318 27.795 22.2651 25.7353 18.6989 23.6748C17.0526 22.7236 15.416 21.7547 13.7555 20.8294C13.2869 20.5681 13.2234 20.3514 13.4449 19.8505C14.9824 16.3734 16.4786 12.878 17.9902 9.38943C18.2521 8.78524 18.4578 8.14261 19.3161 8.13197C20.1751 8.12133 20.3884 8.73791 20.6562 9.35592C23.5206 15.9673 26.3892 22.5769 29.2619 29.1846C29.3437 29.3733 29.4122 29.5679 29.5605 29.9486ZM12.7261 21.5042C12.9456 20.988 13.1217 20.9107 13.6266 21.2172C15.3317 22.2525 17.0737 23.2271 18.9135 24.2893L9.26245 29.8711" fill="white"/>
<path d="M19.4012 38.1457C15.8634 38.1457 12.405 37.0967 9.46342 35.1311C6.52183 33.1656 4.22915 30.372 2.87528 27.1035C1.52142 23.835 1.16719 20.2384 1.85738 16.7686C2.54758 13.2987 4.2512 10.1115 6.75281 7.60986C9.25442 5.10825 12.4417 3.40463 15.9115 2.71444C19.3813 2.02425 22.9779 2.37848 26.2464 3.73234C29.5149 5.0862 32.3086 7.37889 34.2741 10.3205C36.2396 13.2621 37.2887 16.7204 37.2887 20.2582C37.2887 22.6073 36.826 24.9333 35.9271 27.1035C35.0281 29.2737 33.7106 31.2456 32.0496 32.9066C30.3885 34.5676 28.4166 35.8852 26.2464 36.7841C24.0762 37.6831 21.7502 38.1457 19.4012 38.1457ZM19.4012 4.2767C16.2403 4.2767 13.1505 5.214 10.5223 6.97008C7.89417 8.72615 5.84577 11.2221 4.63617 14.1424C3.42656 17.0626 3.11008 20.276 3.72673 23.3761C4.34338 26.4762 5.86547 29.3238 8.10053 31.5589C10.3356 33.7939 13.1832 35.316 16.2833 35.9327C19.3835 36.5493 22.5968 36.2329 25.517 35.0232C28.4373 33.8136 30.9333 31.7653 32.6893 29.1371C34.4454 26.509 35.3827 23.4191 35.3827 20.2582C35.3827 16.0197 33.6989 11.9547 30.7018 8.95758C27.7047 5.96047 23.6397 4.2767 19.4012 4.2767Z" fill="white"/>
<path d="M55.7515 13.3499H59.8039V26.828H57.1797V17.7114C57.1797 17.4495 57.1827 17.0822 57.1889 16.6098C57.1946 16.1375 57.1976 15.7733 57.1978 15.517L54.6438 26.828H51.9065L49.3709 15.517C49.3709 15.773 49.3739 16.1373 49.3798 16.6098C49.3857 17.082 49.3888 17.4492 49.389 17.7114V26.828H46.7651V13.3496H50.863L53.3163 23.9474L55.7515 13.3499ZM68.6939 17.0631C69.3965 17.3807 69.9939 17.892 70.4163 18.537C70.8345 19.1546 71.1061 19.8595 71.2104 20.598C71.2903 21.2541 71.319 21.9155 71.2962 22.5761H64.0376C64.0779 23.5759 64.4252 24.2768 65.0796 24.679C65.5129 24.9385 66.0115 25.0685 66.5163 25.0538C66.9236 25.0858 67.3311 24.9937 67.6851 24.7897C68.039 24.5857 68.323 24.2793 68.4995 23.9109H71.1602C71.0401 24.5995 70.7013 25.231 70.1942 25.712C69.3014 26.6813 68.0515 27.1661 66.4445 27.1663C65.1666 27.1832 63.9236 26.749 62.9341 25.9401C61.9201 25.1223 61.4131 23.7921 61.4131 21.9497C61.4131 20.2233 61.8708 18.8994 62.786 17.978C63.2539 17.516 63.8117 17.155 64.4248 16.9173C65.0378 16.6796 65.6932 16.5703 66.3502 16.5961C67.1557 16.5836 67.9547 16.7427 68.6939 17.0631ZM64.7956 19.314C64.4052 19.741 64.1619 20.2819 64.1012 20.8572H68.591C68.5885 20.5613 68.5257 20.2689 68.4063 19.9981C68.2869 19.7273 68.1134 19.4837 67.8966 19.2822C67.4655 18.9183 66.915 18.7268 66.3512 18.7448C66.0666 18.7273 65.7816 18.7688 65.5139 18.8668C65.2462 18.9647 65.0016 19.117 64.7956 19.314ZM71.59 18.8086V16.9528H72.9798V14.173H75.5586V16.9525H77.1767V18.8086H75.5586V24.0754C75.5228 24.3402 75.5775 24.6093 75.7139 24.8391C75.8177 24.9395 76.1347 24.9897 76.665 24.9897C76.7441 24.9897 76.8279 24.9887 76.9162 24.9855C77.0046 24.9824 77.0914 24.9777 77.1767 24.9716V26.9194L75.9426 26.9649C74.7111 27.0072 73.8699 26.794 73.4188 26.3251C73.0964 25.9405 72.9387 25.4444 72.9798 24.9442V18.8086L71.59 18.8086ZM82.7977 20.7657C83.1531 20.735 83.5029 20.6581 83.8384 20.537C83.9989 20.4897 84.14 20.3922 84.2412 20.2589C84.3423 20.1257 84.3982 19.9635 84.4007 19.7962C84.4177 19.6287 84.3861 19.4598 84.3096 19.3098C84.2331 19.1599 84.1149 19.0351 83.9693 18.9506C83.5722 18.7728 83.1384 18.6928 82.704 18.7171C82.0801 18.7171 81.6384 18.8696 81.3787 19.1746C81.1762 19.4411 81.0483 19.7568 81.008 20.0891H78.4934C78.5144 19.3148 78.7707 18.5652 79.2282 17.9401C79.9201 17.0623 81.1078 16.6234 82.7914 16.6234C83.8026 16.6044 84.8038 16.827 85.7117 17.2727C86.5626 17.7056 86.988 18.5224 86.988 19.7232V24.295C86.988 24.612 86.9941 24.996 87.0061 25.4471C86.9994 25.688 87.0529 25.9268 87.1618 26.1418C87.2607 26.2748 87.3932 26.379 87.5458 26.4436V26.828H84.7114C84.6373 26.6451 84.582 26.4551 84.5465 26.261C84.5162 26.0841 84.4918 25.883 84.4734 25.6574C84.1085 26.0502 83.6868 26.3862 83.2225 26.6542C82.6391 26.9822 81.979 27.1493 81.3098 27.1387C80.4903 27.1696 79.6886 26.8941 79.0611 26.3661C78.7596 26.0901 78.5234 25.7503 78.3698 25.3714C78.2163 24.9926 78.1492 24.5842 78.1736 24.1762C78.1736 22.9508 78.6495 22.0639 79.6015 21.5154C80.3219 21.1587 81.1033 20.9414 81.9045 20.875L82.7977 20.7657ZM84.3911 21.9817C84.2312 22.0818 84.062 22.1661 83.8857 22.2333C83.658 22.3123 83.424 22.3718 83.1862 22.4112L82.5928 22.5211C82.1771 22.575 81.7727 22.6954 81.3953 22.8779C81.199 22.9856 81.0371 23.1466 80.9282 23.3422C80.8193 23.5379 80.7678 23.7603 80.7796 23.9839C80.763 24.1629 80.7883 24.3433 80.8535 24.5107C80.9188 24.6782 81.0221 24.8281 81.1554 24.9487C81.4169 25.1506 81.7401 25.2556 82.0703 25.246C82.6332 25.2479 83.1828 25.0753 83.6437 24.7521C84.1233 24.4229 84.3725 23.8226 84.3911 22.9509L84.3911 21.9817ZM91.9258 26.828H89.3193V13.3496H91.9258V26.828ZM94.678 13.3499H97.4944V24.4045H104.224V26.828H94.6783L94.678 13.3499ZM116.169 14.7855C116.59 15.3873 116.807 16.1086 116.788 16.843C116.823 17.5576 116.601 18.2613 116.163 18.8271C115.876 19.1494 115.526 19.4107 115.135 19.5952C115.773 19.8063 116.321 20.2248 116.692 20.7839C117.056 21.3769 117.239 22.0633 117.217 22.7588C117.229 23.5179 117.02 24.2642 116.617 24.9077C116.349 25.355 115.99 25.7409 115.564 26.0402C115.137 26.3395 114.652 26.5455 114.14 26.6447C113.513 26.771 112.875 26.8324 112.235 26.828H106.163V13.3496H112.676C114.319 13.3744 115.484 13.853 116.169 14.7855ZM108.851 15.6908V18.6622H112.126C112.623 18.6839 113.116 18.5685 113.552 18.3286C113.741 18.199 113.892 18.0205 113.989 17.8121C114.085 17.6037 114.123 17.3731 114.099 17.1447C114.099 16.5168 113.858 16.1023 113.376 15.9011C112.859 15.7468 112.321 15.6759 111.782 15.6908L108.851 15.6908ZM108.851 20.8935V24.4868H112.123C112.59 24.509 113.056 24.4278 113.488 24.2492C114.079 23.957 114.374 23.3962 114.374 22.5669C114.399 22.2667 114.329 21.9661 114.175 21.7071C114.022 21.4481 113.791 21.2436 113.515 21.1222C113.086 20.9559 112.628 20.8781 112.168 20.8934L108.851 20.8935Z" fill="white"/>
</svg>