<svg xmlns="http://www.w3.org/2000/svg" width="165" height="36" viewBox="0 0 165 36" fill="none">
  <g clip-path="url(#clip0_73_2151)">
    <path d="M0.230713 0.511841V17.1438H16.8627V0.511841H0.230713ZM18.5987 0.511841V17.1438H35.2307V0.511841H18.5987ZM153.552 5.96522C152.494 5.96522 151.572 6.20952 150.73 6.61649C149.889 7.07773 149.266 7.70166 148.804 8.54274C148.343 9.3567 148.099 10.2794 148.099 11.3375V13.4265H145.63V16.3023H148.099V28.4576H151.653V16.3299H156.971V24.0624C156.971 27.2369 158.463 28.8375 161.448 28.8375C161.936 28.8375 162.451 28.7562 162.94 28.6748C163.455 28.5663 163.836 28.4304 164.053 28.3219L164.08 28.2949V25.3915L163.944 25.5001C163.727 25.6358 163.537 25.7446 163.211 25.826C162.94 25.9074 162.696 25.9341 162.506 25.9341C161.8 25.9341 161.312 25.7714 160.96 25.3644C160.634 24.9846 160.471 24.3607 160.471 23.4382V16.3299H164.08V13.4265H160.525V8.97675L160.417 9.0043L157.052 10.008L156.971 10.035V13.4265H151.653V11.5272C151.653 10.659 151.87 9.98105 152.25 9.54694C152.63 9.11283 153.2 8.89567 153.905 8.89567C154.394 8.89567 154.909 9.00388 155.479 9.24806L155.614 9.32967V6.26357L155.533 6.23654C155.045 6.07375 154.393 5.96522 153.552 5.96522ZM73.5952 7.07752C72.9983 7.07752 72.5099 7.29489 72.1029 7.67474C71.6959 8.05458 71.4787 8.54306 71.4787 9.13996C71.4787 9.70973 71.6959 10.1978 72.1029 10.5776C72.5099 10.9575 72.9983 11.1473 73.5952 11.1473C74.1921 11.1473 74.7076 10.9303 75.0874 10.5776C75.4944 10.1978 75.7111 9.70973 75.7111 9.13996C75.7111 8.57019 75.4944 8.08171 75.0874 7.67474C74.7347 7.29489 74.2192 7.07752 73.5952 7.07752ZM63.4478 7.51205L58.0755 20.671L57.0988 23.4382H57.0177C56.855 22.8142 56.5565 21.8646 56.0681 20.725L50.8315 7.5661H45.7035V28.5392H49.095V15.597C49.095 14.7831 49.0951 13.8607 49.0679 12.7211C49.0408 12.1514 48.9864 11.7172 48.9593 11.3916H49.0409C49.2037 12.2055 49.3933 12.8023 49.529 13.1822L55.8238 28.4846H58.2111L64.4514 13.0465C64.5871 12.6938 64.7227 11.9885 64.8584 11.3916H64.94C64.8586 12.9381 64.8045 14.3219 64.7773 15.163V28.4576H68.3855V7.51205H63.4478ZM85.8585 13.0741C84.2577 13.0741 82.7929 13.4264 81.572 14.1318C80.3511 14.8372 79.3742 15.8143 78.7502 17.0352C78.099 18.2833 77.7736 19.7213 77.7736 21.3763C77.7736 22.8143 78.0991 24.0891 78.7232 25.2558C79.3472 26.3954 80.2151 27.3179 81.3818 27.942C82.4942 28.566 83.7967 28.8916 85.2618 28.8916C86.944 28.8916 88.3818 28.5391 89.5213 27.8879L89.5483 27.8609V24.6051L89.4127 24.7132C88.8972 25.093 88.3006 25.4188 87.7037 25.6087C87.0797 25.8258 86.5096 25.9341 86.0212 25.9341C84.6104 25.9341 83.4982 25.5275 82.7113 24.6321C81.8974 23.7639 81.4904 22.5702 81.4904 21.0779C81.4904 19.5314 81.8973 18.3105 82.7384 17.4152C83.5794 16.5198 84.6922 16.0586 86.0488 16.0586C87.1883 16.0586 88.3545 16.4382 89.4127 17.1979L89.5483 17.3065V13.8605L89.5213 13.8334C89.0601 13.6435 88.5448 13.4265 87.8393 13.2908C87.1882 13.1551 86.5097 13.0741 85.8585 13.0741ZM124.087 13.0741C122.405 13.0741 121.021 13.4807 119.936 14.3761C118.851 15.2172 118.336 16.357 118.336 17.6865C118.336 18.3919 118.444 19.0156 118.688 19.5311C118.932 20.0466 119.285 20.5353 119.773 20.9423C120.262 21.3221 120.967 21.7562 121.944 22.1632C122.758 22.5159 123.382 22.7871 123.762 23.0042C124.142 23.2213 124.386 23.4655 124.576 23.6555C124.712 23.8725 124.793 24.1437 124.793 24.4964C124.793 25.5003 124.033 25.9887 122.486 25.9887C121.89 25.9887 121.266 25.88 120.533 25.6358C119.801 25.3916 119.122 25.0391 118.552 24.6321L118.417 24.5235V27.969L118.498 27.9965C119.014 28.2407 119.638 28.4033 120.397 28.5932C121.157 28.7289 121.835 28.8375 122.432 28.8375C124.25 28.8375 125.742 28.4303 126.8 27.535C127.886 26.6668 128.455 25.5545 128.455 24.1165C128.455 23.1126 128.184 22.2173 127.587 21.539C126.801 20.8878 125.824 20.2094 124.413 19.6668C123.3 19.2055 122.595 18.8529 122.27 18.5545C121.998 18.2832 121.863 17.9035 121.863 17.4152C121.863 17.0082 122.025 16.6012 122.432 16.3299C122.839 16.0586 123.3 15.9229 123.979 15.9229C124.576 15.9229 125.2 16.0314 125.797 16.1942C126.394 16.357 126.936 16.601 127.37 16.9266L127.506 17.0352V13.7248L127.425 13.6978C127.018 13.535 126.475 13.3724 125.824 13.2368C125.173 13.1282 124.576 13.0741 124.087 13.0741ZM109.083 13.1011C106.614 13.1011 104.634 13.8337 103.25 15.2716C101.839 16.7096 101.161 18.6899 101.161 21.186C101.161 23.5194 101.866 25.4189 103.223 26.8026C104.579 28.1592 106.425 28.8646 108.731 28.8646C111.146 28.8646 113.072 28.1321 114.456 26.667C115.866 25.2019 116.544 23.2484 116.544 20.8337C116.544 18.4461 115.894 16.5467 114.564 15.163C113.289 13.7793 111.417 13.1011 109.083 13.1011ZM137.762 13.1011C135.293 13.1011 133.312 13.8337 131.928 15.2716C130.545 16.7096 129.839 18.6899 129.839 21.186C129.839 23.5194 130.545 25.4189 131.901 26.8026C133.258 28.1592 135.103 28.8646 137.409 28.8646C139.824 28.8646 141.75 28.1321 143.134 26.667C144.544 25.2019 145.223 23.2484 145.223 20.8337C145.223 18.4461 144.572 16.5467 143.242 15.163C141.967 13.7793 140.095 13.1011 137.762 13.1011ZM99.479 13.1822C98.6108 13.1822 97.7966 13.4539 97.0912 14.0237C96.4943 14.5121 96.0873 15.2175 95.7346 16.0586H95.7076V13.4265H92.1804V28.4576H95.7076V20.7791C95.7076 19.4767 95.9787 18.3917 96.5756 17.6049C97.1725 16.7909 97.9323 16.3839 98.8547 16.3839C99.1803 16.3839 99.506 16.4653 99.913 16.5196C100.293 16.6281 100.564 16.7369 100.754 16.8725L100.89 16.9806V13.4535L100.808 13.4265C100.564 13.2637 100.076 13.1822 99.479 13.1822ZM71.8046 13.4265V28.4576H75.3317V13.4265H71.8046ZM108.921 16.004C110.169 16.004 111.146 16.4109 111.851 17.2519C112.556 18.093 112.936 19.314 112.936 20.9147C112.882 22.5426 112.583 23.818 111.905 24.6591C111.254 25.5002 110.223 25.9071 108.948 25.9071C107.672 25.9071 106.642 25.5004 105.909 24.6051C105.176 23.764 104.824 22.5428 104.824 20.9963C104.824 19.3956 105.204 18.1747 105.909 17.3065C106.642 16.4383 107.645 16.004 108.921 16.004ZM137.572 16.004C138.793 16.004 139.797 16.4109 140.502 17.2519C141.207 18.093 141.587 19.314 141.587 20.9147C141.587 22.5426 141.234 23.818 140.556 24.6591C139.905 25.5002 138.874 25.9071 137.599 25.9071C136.297 25.9071 135.293 25.5004 134.56 24.6051C133.828 23.764 133.475 22.5428 133.475 20.9963C133.475 19.3956 133.855 18.1747 134.56 17.3065C135.293 16.4383 136.296 16.004 137.572 16.004ZM0.230713 18.8798V35.5118H16.8627V18.8798H0.230713ZM18.5987 18.8798V35.5118H35.2307V18.8798H18.5987Z" fill="white"/>
  </g>
  <defs>
    <clipPath id="clip0_73_2151">
      <rect width="163.849" height="35" fill="white" transform="translate(0.230713 0.511841)"/>
    </clipPath>
  </defs>
</svg>